<?xml version="1.0" standalone="no"?>
<!DOCTYPE svg PUBLIC "-//W3C//DTD SVG 20010904//EN"
 "http://www.w3.org/TR/2001/REC-SVG-20010904/DTD/svg10.dtd">
<svg version="1.0" xmlns="http://www.w3.org/2000/svg"
 width="269.000000pt" height="439.000000pt" viewBox="0 0 269.000000 439.000000"
 preserveAspectRatio="xMidYMid meet">

<g transform="translate(0.000000,439.000000) scale(0.100000,-0.100000)"
fill="#e92776" stroke="none">
<path d="M918 4085 c-111 -28 -178 -119 -198 -267 -17 -133 -43 -584 -55 -978
-13 -408 -18 -491 -52 -760 -17 -140 -23 -230 -20 -285 11 -154 94 -358 233
-566 l75 -114 -13 -163 c-8 -90 -10 -169 -5 -177 7 -13 72 -15 482 -15 l475 0
4 23 c3 12 8 86 11 165 l6 144 48 66 c67 92 122 184 181 302 73 146 104 228
146 396 34 130 38 163 38 264 0 175 -50 329 -129 399 -47 41 -74 51 -134 51
l-47 0 -12 59 c-24 117 -109 186 -227 186 -44 0 -71 -6 -98 -23 -21 -12 -40
-22 -42 -22 -2 0 -15 20 -29 44 -37 63 -113 100 -194 94 -45 -3 -112 -26 -163
-55 -3 -2 -6 230 -6 515 -2 454 -4 524 -18 567 -42 123 -139 180 -257 150z"/>
</g>
</svg>
