<?xml version="1.0" standalone="no"?>
<!DOCTYPE svg PUBLIC "-//W3C//DTD SVG 20010904//EN"
 "http://www.w3.org/TR/2001/REC-SVG-20010904/DTD/svg10.dtd">
<svg version="1.0" xmlns="http://www.w3.org/2000/svg"
 width="254.000000pt" height="367.000000pt" viewBox="0 0 254.000000 367.000000"
 preserveAspectRatio="xMidYMid meet">

<g transform="translate(0.000000,367.000000) scale(0.100000,-0.100000)"
fill="#e92776" stroke="none">
<path d="M808 3529 c-53 -15 -121 -79 -147 -138 -39 -92 -39 -143 10 -995 22
-393 19 -493 -22 -816 -31 -239 -33 -264 -19 -347 25 -156 106 -341 231 -528
l72 -108 -13 -163 c-7 -90 -10 -170 -7 -179 6 -13 64 -15 481 -15 261 0 477 4
480 8 3 5 8 80 12 168 5 131 10 162 24 179 89 100 264 425 314 580 85 266 104
434 67 589 -49 204 -120 286 -249 286 -52 0 -52 0 -52 33 0 17 -11 55 -24 84
-49 104 -178 158 -280 117 -16 -6 -18 -4 -11 12 25 58 160 498 194 632 89 351
92 447 18 538 -81 98 -243 99 -334 3 -51 -54 -78 -128 -148 -409 -96 -386
-195 -754 -206 -765 -5 -5 -9 0 -9 15 0 33 -44 504 -75 795 -13 127 -30 246
-36 265 -43 123 -158 190 -271 159z"/>
</g>
</svg>
