<?xml version="1.0" standalone="no"?>
<!DOCTYPE svg PUBLIC "-//W3C//DTD SVG 20010904//EN"
 "http://www.w3.org/TR/2001/REC-SVG-20010904/DTD/svg10.dtd">
<svg version="1.0" xmlns="http://www.w3.org/2000/svg"
 width="281.000000pt" height="423.000000pt" viewBox="0 0 281.000000 423.000000"
 preserveAspectRatio="xMidYMid meet">

<g transform="translate(0.000000,423.000000) scale(0.100000,-0.100000)"
fill="#e92776" stroke="none">
<path d="M1378 3880 c-93 -28 -162 -141 -187 -310 -8 -53 -38 -350 -66 -665
-13 -138 -37 -351 -41 -364 -2 -8 -7 -12 -10 -9 -8 9 -82 592 -99 783 -22 253
-22 254 -55 312 -42 74 -103 108 -190 108 -105 -1 -173 -48 -216 -151 -25 -59
-22 -133 29 -659 26 -264 49 -507 52 -540 3 -33 8 -83 11 -110 4 -35 -4 -96
-24 -195 -92 -446 -101 -607 -44 -777 48 -141 158 -347 243 -455 l30 -37 -15
-166 c-9 -91 -13 -172 -10 -180 5 -13 68 -15 479 -15 366 0 475 3 483 13 6 6
12 80 14 162 l4 150 85 126 c150 221 232 403 295 651 57 225 50 391 -21 553
-43 98 -115 155 -196 155 -29 0 -40 4 -36 13 28 61 231 588 293 757 71 196 78
222 78 292 1 69 -2 80 -29 119 -69 98 -204 111 -282 27 -31 -32 -97 -179 -253
-553 -73 -176 -137 -324 -142 -330 -7 -7 -8 4 -4 30 3 22 10 96 16 165 6 69
12 150 15 180 3 30 16 198 30 373 24 299 25 323 10 380 -33 128 -138 200 -247
167z"/>
</g>
</svg>
