<?xml version="1.0" standalone="no"?>
<!DOCTYPE svg PUBLIC "-//W3C//DTD SVG 20010904//EN"
 "http://www.w3.org/TR/2001/REC-SVG-20010904/DTD/svg10.dtd">
<svg version="1.0" xmlns="http://www.w3.org/2000/svg"
 width="281.000000pt" height="423.000000pt" viewBox="0 0 281.000000 423.000000"
 preserveAspectRatio="xMidYMid meet">

<g transform="translate(0.000000,423.000000) scale(0.100000,-0.100000)"
fill="#e92776" stroke="none">
<path d="M1315 3948 c-70 -24 -146 -107 -165 -179 -18 -65 -39 -350 -54 -739
-3 -69 -8 -200 -12 -292 -4 -93 -11 -168 -16 -168 -6 0 -7 180 -3 464 8 524 4
576 -48 653 -44 63 -87 85 -159 80 -64 -4 -113 -35 -156 -97 -58 -86 -57 -67
-57 -885 -1 -412 -4 -901 -9 -1085 -8 -318 -7 -339 12 -420 25 -102 79 -259
132 -382 37 -86 40 -100 51 -252 7 -89 16 -171 20 -183 l9 -23 519 0 c286 0
522 4 525 9 3 4 8 77 12 162 l7 154 48 52 c91 100 177 250 224 388 45 134 47
154 58 820 15 927 15 979 -6 1047 -20 66 -76 132 -121 144 -69 17 -143 -37
-164 -121 -13 -51 -38 -256 -53 -447 -7 -82 -16 -148 -22 -148 -6 0 -7 28 -3
73 18 211 29 470 30 699 1 244 0 258 -20 284 -35 47 -70 67 -126 71 -42 3 -61
-1 -92 -19 -82 -48 -87 -68 -111 -458 -17 -264 -42 -551 -50 -559 -14 -14 -16
24 -6 181 17 273 21 329 26 393 3 33 9 137 15 230 5 94 12 206 15 250 7 103
-8 188 -40 237 -43 65 -132 93 -210 66z"/>
</g>
</svg>
