<?xml version="1.0" standalone="no"?>
<!DOCTYPE svg PUBLIC "-//W3C//DTD SVG 20010904//EN"
 "http://www.w3.org/TR/2001/REC-SVG-20010904/DTD/svg10.dtd">
<svg version="1.0" xmlns="http://www.w3.org/2000/svg"
 width="298.000000pt" height="383.000000pt" viewBox="0 0 298.000000 383.000000"
 preserveAspectRatio="xMidYMid meet">

<g transform="translate(0.000000,383.000000) scale(0.100000,-0.100000)"
fill="#e92776" stroke="none">
<path d="M1577 3546 c-62 -17 -116 -61 -144 -116 -19 -37 -23 -61 -23 -137 0
-55 -4 -93 -10 -93 -5 0 -10 9 -10 20 0 46 -59 128 -112 156 -39 20 -105 17
-155 -7 -64 -31 -121 -125 -137 -224 -6 -39 -19 -255 -31 -515 -3 -69 -8 -156
-10 -195 -2 -38 -7 -128 -10 -200 -10 -210 -24 -408 -33 -439 -7 -27 -9 -26
-66 59 -112 170 -175 217 -286 216 -137 0 -224 -88 -207 -209 8 -61 179 -457
333 -774 79 -164 144 -301 144 -305 0 -3 25 -44 56 -89 55 -82 196 -226 255
-261 l31 -18 -9 -100 c-4 -55 -8 -134 -8 -175 l0 -75 480 0 480 0 8 157 8 157
71 68 c121 118 217 281 260 447 19 73 20 98 14 261 -18 513 -18 549 -2 703 19
180 22 704 5 797 -12 66 -37 121 -67 148 -47 43 -124 39 -181 -8 -16 -14 -31
-25 -33 -25 -2 0 -4 84 -4 188 1 210 -3 228 -71 279 -31 24 -46 28 -98 28 -49
0 -69 -5 -98 -25 -20 -14 -42 -35 -48 -47 -7 -13 -15 -23 -19 -23 -4 0 -10 48
-13 108 -7 118 -18 161 -54 210 -45 60 -122 82 -206 58z"/>
</g>
</svg>
