<?xml version="1.0" standalone="no"?>
<!DOCTYPE svg PUBLIC "-//W3C//DTD SVG 20010904//EN"
 "http://www.w3.org/TR/2001/REC-SVG-20010904/DTD/svg10.dtd">
<svg version="1.0" xmlns="http://www.w3.org/2000/svg"
 width="244.000000pt" height="256.000000pt" viewBox="0 0 244.000000 256.000000"
 preserveAspectRatio="xMidYMid meet">

<g transform="translate(0.000000,256.000000) scale(0.100000,-0.100000)"
fill="#ec008c" stroke="none">
<path d="M1444 2550 c-18 -7 -22 -22 -33 -127 -26 -255 -71 -383 -168 -474
-155 -146 -166 -160 -207 -259 -97 -235 -210 -424 -287 -480 -22 -16 -61 -32
-85 -36 l-44 -6 0 -518 0 -518 23 -5 c115 -29 541 -99 652 -108 202 -16 584
-16 672 0 85 15 140 48 211 126 49 54 69 104 56 139 -15 39 7 88 71 156 35 38
67 81 71 97 5 19 -1 51 -19 103 -36 101 -35 119 14 176 22 27 47 62 55 77 17
31 20 21 -50 151 -14 27 -26 54 -26 61 0 7 20 43 45 81 38 57 44 74 39 99 -14
66 -88 177 -140 211 -45 30 -100 36 -409 42 l-310 7 -3 44 c-4 58 15 115 98
291 75 159 90 215 90 323 0 121 -40 229 -102 282 -61 52 -168 85 -214 65z"/>
<path d="M70 1217 c-24 -8 -41 -23 -52 -47 -16 -32 -18 -79 -18 -528 0 -551 0
-550 64 -577 49 -21 332 -21 381 -1 66 28 65 19 65 578 0 481 -1 504 -20 535
-13 21 -31 35 -57 42 -52 15 -319 13 -363 -2z"/>
</g>
</svg>
