<?xml version="1.0" standalone="no"?>
<!DOCTYPE svg PUBLIC "-//W3C//DTD SVG 20010904//EN"
 "http://www.w3.org/TR/2001/REC-SVG-20010904/DTD/svg10.dtd">
<svg version="1.0" xmlns="http://www.w3.org/2000/svg"
 width="244.000000pt" height="256.000000pt" viewBox="0 0 244.000000 256.000000"
 preserveAspectRatio="xMidYMid meet">

<g transform="translate(0.000000,256.000000) scale(0.100000,-0.100000)"
fill="#ec008c" stroke="none">
<path d="M555 2550 c-123 -11 -166 -24 -223 -69 -97 -77 -145 -155 -126 -205
15 -39 -7 -88 -71 -156 -35 -38 -67 -81 -71 -97 -5 -19 1 -51 19 -103 36 -101
35 -119 -14 -176 -22 -27 -47 -62 -55 -77 -17 -31 -20 -21 50 -151 14 -27 26
-54 26 -61 0 -7 -20 -43 -45 -81 -38 -57 -44 -74 -39 -99 14 -66 88 -177 140
-211 45 -30 100 -36 409 -42 l310 -7 3 -44 c4 -58 -15 -115 -98 -291 -75 -159
-90 -215 -90 -323 0 -156 56 -268 161 -322 45 -24 122 -37 151 -26 24 9 25 15
37 128 26 255 71 383 168 474 155 146 166 160 207 259 97 235 210 424 287 480
22 16 61 32 85 36 l44 6 0 518 0 518 -22 5 c-115 28 -540 98 -643 106 -195 15
-498 20 -600 11z"/>
<path d="M1993 2495 c-64 -27 -63 -21 -63 -577 0 -481 1 -504 20 -535 26 -44
68 -53 240 -52 172 0 208 9 232 59 16 32 18 79 18 528 0 551 0 550 -64 577
-48 20 -337 20 -383 0z"/>
</g>
</svg>
